<svg width="123" height="120" viewBox="0 0 123 120" fill="none" xmlns="http://www.w3.org/2000/svg">
<rect x="26" y="19" width="73" height="79" fill="white"/>
<path d="M42.0557 26.6707L42.0437 26.6668L42.0316 26.6631L31.0964 23.3267C29.6493 22.8691 28.1863 22.9697 26.7707 23.6844L26.7415 23.6991L26.7129 23.7147C24.2187 25.0778 22.8234 28.2912 24.2779 31.2517L24.3021 31.3011L24.3291 31.3491C25.0746 32.6765 26.2228 33.5974 27.6715 34.0664L27.6839 34.0705L27.6964 34.0743L34.9191 36.3092L37.8294 64.0996L35.916 74.3279L35.9118 74.3504L35.9081 74.3731C35.3176 77.9872 38.1957 80.6093 41.4079 80.8673L41.4879 80.8738H41.5681H41.9909C40.409 82.2566 39.4029 84.2684 39.4029 86.5377C39.4029 90.7895 42.9353 94.1377 47.1686 94.1377C51.4021 94.1377 54.9342 90.7894 54.9342 86.5377C54.9342 84.2684 53.9281 82.2566 52.3462 80.8738H75.8339C74.252 82.2566 73.2459 84.2684 73.2459 86.5377C73.2459 90.7895 76.7781 94.1377 81.0115 94.1377C85.2449 94.1377 88.7771 90.7895 88.7771 86.5377C88.7771 84.2684 87.771 82.2566 86.1891 80.8738H87.8132H87.8252L87.8373 80.8736C90.6779 80.8394 93.4834 78.7365 93.6251 75.3704L93.6275 75.3148L93.6267 75.2591C93.5851 72.1918 91.0195 69.8145 87.8815 69.7072L87.8474 69.706H87.8132H48.3913L48.5316 68.9299H90.8912H90.9031L90.9151 68.9298C93.548 68.8983 95.8234 67.0102 96.4094 64.3745L96.4177 64.3373L96.4246 64.2999L99.5025 47.4563L99.5073 47.43L99.5114 47.4037C100.007 44.2141 97.5533 41.5054 94.5792 40.9458L94.5025 40.9314L94.425 40.923L46.4663 35.723L46.0194 31.4732L46.0173 31.4528L46.0148 31.4325C45.7558 29.3752 44.296 27.3853 42.0557 26.6707ZM2 59.7335C2 27.9027 28.5837 2 61.5 2C94.4163 2 121 27.9027 121 59.7335C121 91.5642 94.4163 117.467 61.5 117.467C28.5837 117.467 2 91.5642 2 59.7335Z" fill="#F24E1E" stroke="black" stroke-width="4"/>
</svg>
