<svg width="244" height="229" viewBox="0 0 244 229" fill="none" xmlns="http://www.w3.org/2000/svg">
<path d="M153.441 132.463C153.441 134.714 151.608 136.547 149.347 136.547H98.1831C95.922 136.547 94.0896 134.714 94.0896 132.463V77.2923C94.0896 75.0414 95.922 73.2039 98.1831 73.2039H149.347C151.608 73.2039 153.441 75.0414 153.441 77.2923V132.463ZM153.456 68.1201H94.0743C91.4507 68.1201 89.3274 70.2434 89.3274 72.867V136.889C89.3274 139.507 91.4507 141.63 94.0743 141.63H153.456C156.075 141.63 158.203 139.507 158.203 136.889V72.867C158.203 70.2434 156.075 68.1201 153.456 68.1201Z" fill="#FF7323"/>
<path d="M108.427 71.3306C107.212 71.1111 105.548 71.7543 103.782 72.9997C104.722 71.5807 105.543 69.9117 106.125 68.0997C107.82 62.8628 106.891 58.4936 104.068 58.3456C101.378 58.2078 97.9279 61.9288 96.1414 66.793C94.4673 65.6293 92.8033 65.0831 91.512 65.4353C89.2661 66.0478 88.8272 69.1614 90.2206 72.8874C89.3937 72.6577 88.6179 72.6118 87.9646 72.8108C85.2542 73.6122 85.4635 78.0579 88.4392 82.7487C89.5673 84.53 90.9811 86.4185 92.9973 87.8579C93.7374 88.3837 94.5796 88.8481 95.4575 89.2922C96.0445 89.5882 96.7999 90.0476 97.6778 89.9966C98.8007 89.9353 99.7603 89.0166 100.306 88.4857C101.169 87.6435 102.404 86.9596 103.287 86.1276C104.277 85.1935 105.145 84.2135 105.921 83.2182C106.396 82.6057 106.84 81.9881 107.248 81.3654C110.561 76.3174 111.086 71.8257 108.427 71.3306Z" fill="#599344"/>
<path d="M102.721 63.4549C102.721 63.4549 102.552 63.9857 102.277 64.9453C102.011 65.9049 101.644 67.2779 101.256 68.9368C100.868 70.5956 100.475 72.5403 100.133 74.633C99.9543 75.6794 99.8062 76.7563 99.6684 77.8588C99.597 78.3999 99.5408 78.9562 99.4796 79.5126C99.4336 80.0689 99.3826 80.6253 99.3418 81.1816C99.3111 81.738 99.2601 82.2943 99.2499 82.8507C99.2193 83.4019 99.2039 83.9481 99.2039 84.4942C99.2039 84.7648 99.1988 85.0404 99.1988 85.3109C99.2039 85.5712 99.2091 85.8417 99.2142 86.1071C99.2142 86.6329 99.255 87.1586 99.2754 87.669C99.3367 88.6899 99.4387 89.6596 99.5714 90.5682C99.6327 91.0276 99.7297 91.4563 99.796 91.88C99.8726 92.3036 99.9798 92.6915 100.067 93.0743C100.102 93.2734 100.153 93.452 100.209 93.6307C100.255 93.8042 100.306 93.9778 100.357 94.1462C100.449 94.4882 100.562 94.7944 100.669 95.0803C100.863 95.6723 101.098 96.1368 101.266 96.535C101.343 96.7391 101.445 96.8973 101.521 97.0403C101.598 97.1883 101.664 97.3108 101.72 97.4129C101.822 97.6068 101.879 97.714 101.879 97.714L101.955 97.862C102.67 99.1891 102.159 100.843 100.822 101.547C99.4898 102.257 97.8309 101.751 97.1265 100.419C97.0755 100.327 97.0245 100.215 96.9887 100.118C96.9887 100.118 96.9275 99.9649 96.8101 99.674C96.759 99.526 96.6876 99.3473 96.611 99.1381C96.5345 98.9237 96.4375 98.6889 96.3558 98.4133C96.1976 97.862 95.9832 97.2036 95.8352 96.438C95.7433 96.0552 95.6565 95.6468 95.5953 95.2232C95.5647 95.0088 95.5289 94.7944 95.4983 94.5698C95.4575 94.3504 95.432 94.1207 95.4115 93.8859C95.3656 93.4265 95.3044 92.9365 95.2788 92.4465C95.2584 91.9463 95.2176 91.4359 95.2176 90.9102C95.1972 89.8587 95.2227 88.7664 95.3044 87.6435C95.3452 87.082 95.3809 86.5155 95.4473 85.9489C95.483 85.6631 95.5136 85.3722 95.5392 85.0812C95.58 84.7954 95.6259 84.5095 95.6617 84.2186C95.7331 83.6418 95.8352 83.0702 95.9322 82.4883C96.0189 81.9064 96.1414 81.3348 96.2537 80.758C96.3711 80.1863 96.5038 79.6147 96.6212 79.043C96.759 78.4764 96.8867 77.915 97.0296 77.3637C97.3154 76.251 97.6165 75.1638 97.9279 74.1277C98.5557 72.0401 99.2091 70.126 99.8113 68.508C100.419 66.8849 100.96 65.5527 101.353 64.6186C101.751 63.6948 101.996 63.1691 101.996 63.1691C102.088 62.9751 102.323 62.8934 102.511 62.9802C102.695 63.0619 102.777 63.266 102.721 63.4549Z" fill="#8ED24D"/>
<path d="M95.9373 84.8822C95.9373 84.8822 95.5187 84.3973 94.896 83.7184C94.2682 83.0345 93.4056 82.1719 92.5634 81.2837C92.1398 80.8397 91.7212 80.3956 91.3384 79.9669C90.9505 79.533 90.6034 79.1247 90.3329 78.7368C90.19 78.5581 90.0573 78.3846 89.9552 78.2161C89.848 78.0477 89.751 77.9252 89.6898 77.7874C89.552 77.5271 89.4805 77.3791 89.4805 77.3791C89.3784 77.1902 89.4499 76.9554 89.6438 76.8533C89.8327 76.7614 90.0675 76.8329 90.1696 77.0218V77.0269L90.1951 77.083L90.3635 77.4097C90.4044 77.5169 90.5116 77.6343 90.6034 77.7772C90.6953 77.9252 90.8178 78.0783 90.9556 78.2417C91.2415 78.5734 91.6038 78.9358 92.0071 79.3135C92.201 79.5126 92.4256 79.6912 92.6451 79.8801C92.8646 80.074 93.0994 80.2578 93.3342 80.4364C93.8037 80.7988 94.2835 81.151 94.748 81.4675C95.2125 81.7788 95.6566 82.0494 96.0496 82.2739C96.8356 82.718 97.3869 82.9426 97.3869 82.9426C98.03 83.208 98.3363 83.9328 98.0708 84.5708C97.8156 85.2139 97.0806 85.5151 96.4426 85.2599C96.2486 85.1833 96.0853 85.0608 95.9628 84.9128L95.9373 84.8822Z" fill="#8ED24D"/>
<path d="M97.979 80.4416C97.979 80.4416 98.1372 80.3701 98.4128 80.2527C98.6935 80.1251 99.0866 79.9516 99.551 79.7219C100.021 79.4922 100.562 79.2166 101.133 78.9154C101.71 78.6041 102.302 78.257 102.904 77.9048C103.502 77.5577 104.073 77.1698 104.619 76.8176C105.155 76.4552 105.625 76.0724 106.038 75.7611C106.248 75.613 106.411 75.4446 106.574 75.3017C106.722 75.1588 106.855 75.0414 106.972 74.9393C107.187 74.73 107.304 74.6177 107.304 74.6177L107.33 74.5973C107.432 74.4952 107.6 74.5003 107.697 74.6024C107.799 74.7096 107.794 74.8729 107.687 74.975L107.672 74.9903C107.672 74.9903 107.534 75.0975 107.289 75.2915C107.166 75.3834 107.024 75.5059 106.86 75.6437C106.687 75.7713 106.518 75.9448 106.304 76.0979C106.1 76.2562 105.875 76.4246 105.63 76.6083C105.385 76.7819 105.15 76.9912 104.885 77.1851C104.354 77.5781 103.798 77.9865 103.241 78.405C102.113 79.237 100.985 80.0639 100.143 80.6866C99.3009 81.3246 98.7395 81.7431 98.7395 81.7431C98.4026 81.9983 97.9228 81.9371 97.6727 81.6002C97.4175 81.2633 97.4838 80.7886 97.8207 80.5334C97.8718 80.4977 97.9228 80.4671 97.979 80.4416Z" fill="#8ED24D"/>
<path d="M98.1168 75.9805C98.1168 75.9805 97.7033 75.6028 97.0806 75.026C96.7693 74.7402 96.4171 74.4084 96.0343 74.046C95.6617 73.6785 95.2635 73.2906 94.8807 72.8874C94.4928 72.474 94.1253 72.0554 93.8038 71.6369C93.6404 71.4327 93.4822 71.2234 93.3495 71.0193C93.2066 70.8253 93.0943 70.616 92.9871 70.4272C92.8697 70.2434 92.7931 70.0597 92.7217 69.8913C92.6502 69.7228 92.589 69.5799 92.5634 69.4472C92.4971 69.1869 92.4563 69.0389 92.4563 69.0389C92.4154 68.8602 92.5226 68.6714 92.7013 68.6254C92.885 68.5846 93.0688 68.6867 93.1147 68.8704C93.1147 68.8755 93.1147 68.8755 93.1198 68.8806L93.1351 68.947C93.1351 68.947 93.1606 69.0695 93.2015 69.2737C93.2219 69.3757 93.2729 69.4982 93.3342 69.6412C93.3903 69.7841 93.4567 69.9423 93.5639 70.1056C93.6557 70.2792 93.7578 70.4578 93.9058 70.6416C94.0283 70.8304 94.1713 71.0193 94.3397 71.2081C94.6459 71.596 95.0339 71.9738 95.4218 72.3413C95.8097 72.719 96.2231 73.0609 96.6212 73.3723C97.0194 73.6836 97.4073 73.9644 97.7493 74.1839C98.423 74.6483 98.8926 74.8831 98.8926 74.8831C99.2295 75.0516 99.3622 75.465 99.1937 75.7968C99.0253 76.1285 98.6119 76.2613 98.2852 76.0979C98.2291 76.0622 98.178 76.0316 98.127 75.9907L98.1168 75.9805Z" fill="#8ED24D"/>
<path d="M94.7123 71.7951C94.7072 71.7951 94.7685 71.7543 94.8144 71.7083C94.8705 71.6726 94.9522 71.596 95.0441 71.4837C95.1513 71.3868 95.238 71.2489 95.3554 71.106C95.432 70.9427 95.5596 70.7845 95.6157 70.6007C95.6464 70.5088 95.677 70.4221 95.7127 70.3302C95.7587 70.2383 95.7536 70.1465 95.774 70.0546C95.7842 69.9576 95.7995 69.8708 95.8199 69.7892C95.8352 69.7024 95.8301 69.6258 95.825 69.5442C95.8046 69.2379 95.7944 69.0337 95.7944 69.0337V69.0082C95.7944 68.9215 95.8556 68.85 95.9373 68.85C96.0088 68.8398 96.0751 68.8908 96.0955 68.9572C96.0955 68.9572 96.1466 69.1818 96.2231 69.5084C96.2487 69.5952 96.2742 69.682 96.2691 69.7841C96.2742 69.881 96.2742 69.9882 96.2793 70.0954C96.2742 70.2077 96.2997 70.32 96.2691 70.4323C96.2538 70.5497 96.2385 70.662 96.2129 70.7794C96.1874 71.0193 96.0802 71.2285 96.0139 71.4531C95.9169 71.6471 95.8352 71.8461 95.728 71.9942C95.6362 72.1422 95.5494 72.2698 95.4677 72.3668C95.3963 72.4484 95.3605 72.4893 95.3605 72.4893C95.1717 72.673 94.8705 72.6577 94.6919 72.4688C94.5081 72.2749 94.5235 71.9737 94.7123 71.7951Z" fill="#8ED24D"/>
<path d="M93.671 81.6666C93.671 81.6666 93.7017 81.6257 93.7374 81.5543C93.7782 81.493 93.8242 81.3961 93.8803 81.2685C93.9416 81.1408 93.9926 80.9877 94.0539 80.8295C94.0947 80.6559 94.161 80.4773 94.1917 80.2935C94.2172 80.1098 94.2631 79.9209 94.258 79.7423C94.258 79.5739 94.2887 79.3952 94.258 79.2625C94.2223 78.9716 94.2019 78.7878 94.2019 78.7878L94.1968 78.7521C94.1866 78.6551 94.258 78.5632 94.355 78.5479C94.4418 78.5377 94.5286 78.5938 94.549 78.6755C94.549 78.6755 94.6153 78.8797 94.7072 79.191C94.7685 79.3391 94.7685 79.5228 94.8093 79.7219C94.845 79.926 94.8399 80.1404 94.845 80.3548C94.8501 80.5743 94.8195 80.7887 94.8042 80.9928C94.7633 81.1919 94.7429 81.3858 94.697 81.5441C94.6613 81.7023 94.6204 81.835 94.5796 81.9422C94.549 82.029 94.5337 82.08 94.5337 82.08C94.4418 82.3301 94.1662 82.4577 93.9211 82.371C93.671 82.2791 93.5383 82.0137 93.6251 81.7636C93.6404 81.738 93.6506 81.7074 93.6608 81.687L93.671 81.6666Z" fill="#8ED24D"/>
<path d="M92.4562 80.4875C92.4562 80.4875 92.4001 80.5283 92.2878 80.5998C92.1806 80.661 92.0326 80.7478 91.8437 80.8346C91.4711 81.0132 90.9301 81.2021 90.3482 81.197C90.2002 81.1817 90.0573 81.1817 89.9195 81.1408C89.7817 81.1051 89.649 81.0694 89.5316 80.9979C89.404 80.952 89.3019 80.8703 89.21 80.7937C89.1079 80.7274 89.0314 80.6457 88.965 80.5641C88.9038 80.4875 88.8323 80.4262 88.7966 80.3548C88.7506 80.2833 88.72 80.2221 88.6894 80.1761C88.6281 80.0741 88.5975 80.0179 88.5975 80.0179C88.5771 79.9822 88.5873 79.9363 88.623 79.9107C88.6588 79.8954 88.6996 79.9005 88.7251 79.926L88.7353 79.9363C88.7353 79.9363 88.7762 79.9822 88.8476 80.0639C88.8833 80.0996 88.9293 80.1506 88.9701 80.2068C89.0212 80.2629 89.0926 80.3037 89.159 80.3599C89.2253 80.416 89.3019 80.4722 89.3989 80.5079C89.4805 80.559 89.5724 80.5998 89.6796 80.6202C89.7766 80.6508 89.8838 80.6559 89.9858 80.661C90.093 80.6815 90.2053 80.6508 90.3125 80.6406C90.7464 80.559 91.1496 80.3293 91.4252 80.1251C91.5579 80.0179 91.6702 79.926 91.7417 79.8597C91.8131 79.7933 91.854 79.7576 91.854 79.7576L91.8642 79.7423C92.0479 79.5585 92.3593 79.5637 92.543 79.7474C92.7217 79.9414 92.7217 80.2476 92.5379 80.4262C92.5073 80.4467 92.4869 80.4722 92.4562 80.4875Z" fill="#8ED24D"/>
<path d="M102.113 78.7317C102.113 78.7317 102.2 78.7521 102.302 78.7776C102.409 78.8082 102.593 78.8286 102.807 78.8644C102.915 78.8746 103.037 78.8746 103.165 78.8848C103.292 78.8899 103.425 78.9001 103.568 78.8899C103.706 78.8899 103.849 78.8848 103.997 78.8797C104.145 78.8797 104.288 78.8439 104.446 78.8235C104.594 78.8031 104.742 78.7878 104.89 78.7623C105.033 78.7266 105.176 78.6857 105.314 78.6551C105.451 78.6143 105.584 78.5836 105.712 78.5479C105.844 78.5224 105.957 78.4611 106.064 78.4254C106.498 78.2519 106.784 78.1447 106.784 78.1447L106.799 78.1396C106.881 78.1038 106.978 78.1447 107.008 78.2263C107.044 78.3029 107.003 78.3897 106.937 78.4305C106.937 78.4305 106.656 78.5785 106.232 78.8082C106.12 78.8644 106.013 78.9409 105.885 78.9869C105.753 79.0379 105.62 79.0941 105.477 79.1502C105.334 79.2063 105.191 79.2676 105.038 79.3237C104.885 79.3646 104.727 79.4105 104.563 79.4513C104.41 79.4922 104.252 79.5483 104.089 79.5687C103.93 79.5943 103.772 79.6198 103.624 79.6453C103.466 79.6708 103.318 79.6759 103.17 79.6912C103.032 79.7014 102.894 79.7117 102.767 79.7117C102.511 79.7117 102.302 79.7117 102.139 79.6912C101.97 79.6708 101.909 79.6606 101.909 79.6606L101.873 79.6504C101.613 79.5994 101.45 79.3544 101.501 79.0941C101.547 78.8388 101.802 78.6653 102.062 78.7163C102.078 78.7214 102.093 78.7266 102.113 78.7317Z" fill="#8ED24D"/>
<path d="M104.124 76.8891C104.124 76.8891 104.211 76.6849 104.318 76.3787C104.42 76.0673 104.543 75.6539 104.65 75.2353C104.752 74.8168 104.849 74.3931 104.9 74.0767C104.961 73.7602 104.987 73.5458 104.987 73.5458C104.997 73.4846 105.048 73.4438 105.109 73.4489C105.171 73.4591 105.217 73.5152 105.212 73.5765C105.212 73.5816 105.212 73.5867 105.206 73.5918C105.206 73.5918 105.15 73.801 105.079 74.1124C105.007 74.4289 104.931 74.8525 104.87 75.2762C104.803 75.7049 104.747 76.1337 104.732 76.4603C104.701 76.7819 104.706 77.0014 104.706 77.0014C104.716 77.1749 104.584 77.3127 104.41 77.3127C104.242 77.3178 104.104 77.1851 104.099 77.0167C104.099 76.9707 104.109 76.9248 104.124 76.8891Z" fill="#8ED24D"/>
<path d="M82.6511 77.3536C81.7681 78.2162 81.3496 79.9465 81.3598 82.1055C80.7371 80.5283 79.8285 78.895 78.6801 77.3842C75.342 73.0048 71.228 71.2592 69.4875 73.4846C67.8286 75.6028 68.9158 80.5539 71.8916 84.8005C69.9724 85.4998 68.5688 86.5513 68.1196 87.812C67.3335 89.9966 69.6457 92.1403 73.5045 93.1407C72.8307 93.6869 72.3663 94.2892 72.1417 94.9374C71.2484 97.612 75.0306 99.9854 80.584 100.246C82.7022 100.343 85.0552 100.266 87.3878 99.4342C88.2453 99.133 89.1181 98.7043 89.9807 98.2449C90.5626 97.9387 91.3742 97.5814 91.8284 96.8362C92.4205 95.8868 92.2215 94.5699 92.0887 93.8145C91.8948 92.6303 92.0377 91.2318 91.8642 90.0323C91.6651 88.6899 91.3537 87.4139 90.9811 86.2093C90.7515 85.4743 90.4962 84.7597 90.2206 84.0655C87.9697 78.4612 84.5754 75.4548 82.6511 77.3536Z" fill="#599344"/>
<path d="M72.9124 77.5067C72.9124 77.5067 73.2544 77.9558 73.8873 78.7266C74.5151 79.4973 75.439 80.5794 76.5772 81.8452C77.7205 83.111 79.0884 84.5555 80.6095 86.0306C81.3649 86.7707 82.1713 87.5159 82.9931 88.256C83.4066 88.6286 83.8251 88.9859 84.2487 89.3534C84.6826 89.7107 85.1062 90.0782 85.5401 90.4253C85.9791 90.7724 86.4078 91.1297 86.8519 91.4564C87.2959 91.7932 87.7349 92.1199 88.184 92.4364C88.4035 92.5946 88.623 92.7477 88.8476 92.911C89.0722 93.0591 89.2917 93.202 89.5111 93.35C89.9501 93.6511 90.3941 93.9217 90.8331 94.1922C91.7059 94.723 92.5634 95.1977 93.3852 95.6111C93.7935 95.8255 94.2019 95.994 94.5949 96.1828C94.9777 96.3666 95.3656 96.4993 95.7229 96.6524C95.9066 96.729 96.0853 96.7902 96.2639 96.8515C96.4426 96.9025 96.611 96.9637 96.7795 97.0199C97.1061 97.1424 97.4277 97.2241 97.7237 97.3006C98.3158 97.4742 98.8364 97.5609 99.2601 97.6477C99.4694 97.6987 99.6582 97.709 99.8215 97.7294C99.9798 97.7447 100.118 97.7651 100.235 97.7804C100.454 97.8059 100.577 97.8161 100.577 97.8161L100.735 97.8417C102.236 98.0203 103.308 99.3882 103.119 100.884C102.94 102.374 101.577 103.441 100.077 103.257C99.9696 103.242 99.8471 103.221 99.7501 103.201C99.7501 103.201 99.5868 103.155 99.2805 103.084C99.1325 103.048 98.9436 102.997 98.7241 102.941C98.5098 102.885 98.2546 102.834 97.984 102.731C97.443 102.553 96.7795 102.349 96.0649 102.032C95.7025 101.884 95.3197 101.726 94.9369 101.532C94.7429 101.435 94.5438 101.338 94.3397 101.241C94.1355 101.144 93.9313 101.037 93.7272 100.914C93.3239 100.685 92.8901 100.465 92.4613 100.2C92.0428 99.9293 91.5987 99.669 91.17 99.3678C90.3023 98.7859 89.4142 98.1377 88.5362 97.4282C88.1024 97.076 87.6532 96.7239 87.2245 96.3359C87.0101 96.1522 86.7957 95.9582 86.5711 95.7643C86.3568 95.5703 86.1424 95.3764 85.9331 95.1773C85.4993 94.7843 85.0756 94.3759 84.6622 93.9676C84.2385 93.5593 83.8353 93.1305 83.4219 92.712C83.0135 92.2883 82.6256 91.8545 82.2275 91.4257C81.8396 90.9919 81.4568 90.5631 81.0791 90.1293C80.3287 89.2565 79.6091 88.3939 78.9353 87.5364C77.5776 85.8367 76.3781 84.2033 75.3981 82.7844C74.413 81.3552 73.6219 80.1506 73.091 79.2931C72.5551 78.4407 72.2642 77.9405 72.2642 77.9405C72.157 77.7517 72.2233 77.5169 72.402 77.4046C72.5806 77.3076 72.795 77.3536 72.9124 77.5067Z" fill="#8ED24D"/>
<path d="M86.6324 95.3304C86.6324 95.3304 85.9944 95.3917 85.0756 95.5142C84.1569 95.6316 82.9523 95.8459 81.7426 96.0348C81.1352 96.1216 80.5278 96.2032 79.9562 96.2696C79.3845 96.3411 78.8435 96.3921 78.379 96.3972C78.1391 96.4074 77.9247 96.4176 77.7307 96.4023C77.5317 96.3921 77.3684 96.4023 77.2203 96.3768C76.9294 96.3359 76.7661 96.3155 76.7661 96.3155C76.5568 96.29 76.4037 96.0909 76.4292 95.8817C76.4649 95.6673 76.6538 95.5193 76.8732 95.5448V95.5499L76.9345 95.555C76.9345 95.555 77.0672 95.5754 77.302 95.6111C77.4092 95.6316 77.5725 95.6214 77.741 95.6265C77.9094 95.6316 78.1085 95.6163 78.3279 95.6009C78.7567 95.5601 79.262 95.4733 79.803 95.3559C80.0736 95.3151 80.3543 95.2232 80.6401 95.162C80.9209 95.0905 81.2067 94.9986 81.4874 94.917C82.054 94.7434 82.6205 94.5495 83.1412 94.3453C83.6669 94.1462 84.1467 93.937 84.5499 93.743C85.3717 93.3551 85.8668 93.0284 85.8668 93.0284C86.4538 92.6558 87.2245 92.8191 87.5971 93.4061C87.9799 93.9829 87.8064 94.7587 87.2296 95.1314C87.051 95.2487 86.8621 95.31 86.6732 95.3304H86.6324Z" fill="#8ED24D"/>
<path d="M84.1518 91.1195C84.1518 91.1195 84.1824 90.951 84.2436 90.6448C84.2998 90.3487 84.3866 89.9302 84.458 89.4147C84.5397 88.9043 84.6265 88.302 84.703 87.6588C84.7796 87.0157 84.8357 86.3267 84.8919 85.6325C84.948 84.9434 84.9582 84.2595 84.9735 83.6061C84.9837 82.963 84.9378 82.3658 84.9225 81.8452C84.9174 81.59 84.8817 81.3501 84.851 81.1459C84.8255 80.9367 84.7949 80.7631 84.7796 80.6151C84.7336 80.3191 84.7081 80.1506 84.7081 80.1506L84.703 80.1251C84.6826 79.9822 84.7796 79.8495 84.9225 79.8291C85.0654 79.8035 85.1981 79.9005 85.2236 80.0434C85.2236 80.0536 85.2287 80.0587 85.2287 80.069C85.2287 80.069 85.239 80.2476 85.2543 80.5539C85.2645 80.7019 85.2798 80.8907 85.2951 81.1051C85.3053 81.3195 85.3461 81.5543 85.3564 81.8197C85.3666 82.08 85.3768 82.3658 85.387 82.6619C85.3921 82.963 85.4278 83.2795 85.4278 83.601C85.4482 84.2595 85.4686 84.9485 85.4942 85.6478C85.5299 87.0412 85.5656 88.4398 85.5911 89.4861C85.632 90.5376 85.6575 91.242 85.6575 91.242C85.6728 91.6605 85.3461 92.0127 84.9276 92.0331C84.5039 92.0433 84.1518 91.7217 84.1364 91.3032C84.1364 91.2369 84.1415 91.1756 84.1518 91.1195Z" fill="#8ED24D"/>
<path d="M80.5687 88.4449C80.5687 88.4449 80.0123 88.5674 79.1854 88.7512C78.7771 88.8379 78.2973 88.9349 77.7869 89.0472C77.2663 89.1391 76.7201 89.2412 76.1689 89.3279C75.6125 89.4045 75.0562 89.4657 74.5253 89.4862C74.2599 89.5066 74.0098 89.5117 73.7597 89.5066C73.5147 89.5066 73.2799 89.4862 73.0655 89.4657C72.8512 89.4453 72.6521 89.4096 72.4734 89.3688C72.2999 89.3381 72.1417 89.3024 72.0192 89.2514C71.7691 89.1544 71.6262 89.0982 71.6262 89.0982C71.4475 89.0319 71.3607 88.843 71.4271 88.6644C71.4883 88.4909 71.6874 88.399 71.8609 88.4653C71.8609 88.4653 71.8661 88.4653 71.8661 88.4704L71.9324 88.496C71.9324 88.496 72.0447 88.5419 72.2438 88.6236C72.3305 88.6695 72.4632 88.7001 72.6164 88.7307C72.7695 88.7665 72.9379 88.8022 73.1319 88.8124C73.331 88.8328 73.5351 88.8481 73.7648 88.8379C73.9894 88.843 74.2293 88.8379 74.4845 88.8073C74.9796 88.7767 75.5104 88.6695 76.0362 88.5674C76.5619 88.4653 77.0876 88.3224 77.5725 88.1744C78.0574 88.0315 78.5015 87.8784 78.8792 87.7252C79.6397 87.4343 80.1093 87.1842 80.1093 87.1842C80.4411 87.0106 80.8545 87.128 81.028 87.4598C81.2067 87.7916 81.0842 88.205 80.7524 88.3786C80.6963 88.4092 80.6401 88.4296 80.584 88.4449H80.5687Z" fill="#8ED24D"/>
<path d="M75.1787 88.8379C75.1787 88.843 75.1787 88.7716 75.1685 88.7052C75.1685 88.6389 75.148 88.5215 75.1174 88.3837C75.097 88.2408 75.0306 88.0876 74.9745 87.9192C74.8928 87.761 74.8367 87.567 74.7142 87.4139L74.5509 87.1791C74.4998 87.0923 74.4181 87.0413 74.3518 86.9698L74.1629 86.781C74.1017 86.7197 74.0302 86.6789 73.969 86.638C73.7036 86.4798 73.5351 86.3726 73.5351 86.3726L73.5045 86.3522C73.433 86.3063 73.4126 86.2144 73.4586 86.1429C73.4943 86.0766 73.5709 86.0562 73.6372 86.0868C73.6372 86.0868 73.8465 86.1684 74.168 86.2858C74.2497 86.3216 74.3365 86.3471 74.4181 86.4083C74.4998 86.4645 74.5866 86.5206 74.6785 86.5819C74.7703 86.6482 74.8724 86.6942 74.949 86.781L75.2042 87.026C75.3879 87.1842 75.4951 87.3935 75.6431 87.5721C75.7452 87.7661 75.8626 87.9447 75.9239 88.1131C75.9953 88.2816 76.0464 88.4296 76.077 88.547C76.1025 88.644 76.1229 88.7052 76.1229 88.7052C76.1587 88.9604 75.9749 89.2054 75.7197 89.2361C75.4543 89.2769 75.2144 89.0932 75.1787 88.8379Z" fill="#8ED24D"/>
<path d="M82.6971 95.3355C82.6971 95.3355 82.6716 95.2947 82.6359 95.2232C82.6052 95.162 82.5593 95.0599 82.4878 94.9425C82.4215 94.8251 82.3194 94.6924 82.2224 94.5495C82.105 94.4168 81.9927 94.2585 81.8549 94.1309C81.7222 94.0033 81.5997 93.8604 81.4466 93.7634C81.3037 93.6613 81.1761 93.5439 81.0536 93.4878C80.7933 93.35 80.6248 93.2632 80.6248 93.2632L80.5993 93.2428C80.5125 93.202 80.4768 93.0846 80.5227 92.9978C80.5687 92.9212 80.6555 92.8855 80.7371 92.911C80.7371 92.911 80.9413 92.9723 81.2424 93.0744C81.4058 93.1101 81.564 93.2173 81.7477 93.2989C81.9366 93.3806 82.105 93.5133 82.2888 93.6307C82.4674 93.7532 82.6257 93.9012 82.7839 94.0288C82.9319 94.1769 83.0697 94.2994 83.1769 94.4321C83.2841 94.5546 83.376 94.6618 83.4321 94.7536C83.4934 94.8302 83.524 94.871 83.524 94.871C83.6771 95.0905 83.6261 95.3916 83.4117 95.5397C83.1973 95.6979 82.9013 95.652 82.743 95.4274C82.7277 95.407 82.7124 95.3865 82.7022 95.3559L82.6971 95.3355Z" fill="#8ED24D"/>
<path d="M81.028 95.6622C81.028 95.6622 81.0229 95.7336 81.0178 95.8561C81.0127 95.9837 80.9974 96.1573 80.9617 96.3615C80.8902 96.7647 80.7371 97.3159 80.4002 97.7906C80.3083 97.8978 80.2267 98.0152 80.1144 98.1071C80.0021 98.2041 79.9 98.2908 79.7724 98.347C79.655 98.4184 79.5325 98.4593 79.4202 98.495C79.3079 98.5307 79.2007 98.5511 79.0935 98.5614C78.9966 98.5665 78.8996 98.5869 78.823 98.5767C78.7413 98.5716 78.6699 98.5665 78.6137 98.5614C78.4963 98.5511 78.43 98.5511 78.43 98.5511C78.3943 98.546 78.3585 98.5052 78.3585 98.4593C78.3585 98.4235 78.3943 98.398 78.43 98.3878H78.4402C78.4402 98.3878 78.5015 98.3776 78.6086 98.3674C78.6648 98.3623 78.726 98.3572 78.8026 98.347C78.8741 98.3419 78.9506 98.301 79.0323 98.2806C79.1191 98.2653 79.2109 98.2245 79.2926 98.1734C79.3794 98.1326 79.4661 98.0816 79.5478 98.0101C79.6295 97.9489 79.6958 97.8621 79.7622 97.7804C79.8336 97.7038 79.8694 97.5916 79.9255 97.5048C80.1042 97.0965 80.145 96.6422 80.1348 96.2951C80.1297 96.1216 80.1144 95.9786 80.1042 95.8868C80.0888 95.7949 80.0786 95.7387 80.0786 95.7387L80.0735 95.7234C80.0327 95.458 80.2062 95.213 80.4717 95.1722C80.732 95.1262 80.9821 95.3049 81.0178 95.5601C81.028 95.5958 81.028 95.6264 81.028 95.6622Z" fill="#8ED24D"/>
<path d="M85.1114 86.7554C85.1114 86.7554 85.1828 86.6993 85.2594 86.6278C85.3411 86.5564 85.4687 86.4185 85.6167 86.2654C85.6881 86.1838 85.7596 86.0868 85.8464 85.9847C85.9229 85.8877 86.0097 85.7805 86.0812 85.6631C86.1526 85.5457 86.2343 85.4232 86.316 85.3007C86.3976 85.1782 86.4589 85.0404 86.5303 84.9077C86.5967 84.7699 86.6681 84.6372 86.7345 84.5045C86.7804 84.3616 86.8366 84.2238 86.8876 84.0911C86.9387 83.9583 86.9795 83.8256 87.0305 83.7082C87.0816 83.5806 87.0969 83.4581 87.1224 83.351C87.2347 82.8967 87.3061 82.6006 87.3061 82.6006L87.3113 82.5802C87.3317 82.4986 87.4184 82.4424 87.5052 82.4628C87.5818 82.4781 87.6379 82.5547 87.6277 82.6313C87.6277 82.6313 87.592 82.9528 87.5358 83.4326C87.5205 83.5551 87.5205 83.6827 87.4848 83.8154C87.4491 83.9532 87.4184 84.0962 87.3827 84.2442C87.3521 84.3973 87.3113 84.5453 87.2755 84.7036C87.2245 84.8516 87.1683 85.0047 87.1122 85.1578C87.0509 85.3161 87.0101 85.4743 86.9387 85.6172C86.8672 85.7601 86.7957 85.9081 86.7294 86.0459C86.6681 86.1889 86.5865 86.3165 86.5099 86.439C86.4333 86.5564 86.367 86.6789 86.2955 86.7809C86.1475 86.9851 86.025 87.1586 85.9178 87.2863C85.8055 87.4088 85.7545 87.4547 85.7545 87.4547L85.7392 87.4751C85.5452 87.6589 85.2441 87.6538 85.0603 87.4649C84.8817 87.2709 84.8868 86.9698 85.0706 86.7912C85.091 86.7758 85.1012 86.7656 85.1114 86.7554Z" fill="#8ED24D"/>
<path d="M84.7541 84.0553C84.7541 84.0553 84.6367 83.8664 84.4427 83.601C84.2488 83.3356 83.9731 83.0038 83.6924 82.6772C83.4117 82.3505 83.1207 82.0392 82.8962 81.8095C82.6614 81.5849 82.5031 81.442 82.5031 81.442C82.4572 81.396 82.4521 81.3246 82.498 81.2786C82.5338 81.2327 82.6052 81.2327 82.6512 81.2684L82.6614 81.2786C82.6614 81.2786 82.7992 81.4522 83.0187 81.687C83.2381 81.9218 83.5393 82.2331 83.8557 82.5292C84.1671 82.8252 84.4887 83.111 84.749 83.3152C84.9991 83.5194 85.1828 83.6419 85.1828 83.6419C85.3258 83.7337 85.3615 83.9277 85.2645 84.0655C85.1726 84.2084 84.9838 84.239 84.8409 84.1472C84.8 84.1268 84.7745 84.091 84.7541 84.0553Z" fill="#8ED24D"/>
<path d="M150.792 94.917C148.735 105.605 142.559 113.404 137 112.338C131.437 111.271 123.505 98.5257 130.666 91.0532C140.4 80.8856 131.917 68.5336 137.48 69.6003C144.56 70.9631 152.854 84.2289 150.792 94.917Z" fill="#243C1A"/>
<path d="M147.01 97.464C146.673 108.341 150.986 117.299 156.646 117.472C162.307 117.646 172.842 106.948 167.493 98.0918C160.229 86.0409 171.219 75.8478 165.558 75.6743C158.351 75.4497 147.346 86.587 147.01 97.464Z" fill="#243C1A"/>
<path d="M142.748 94.6465C141.048 103.145 136.087 109.316 131.672 108.433C127.251 107.555 121.009 97.3721 126.751 91.4615C134.555 83.4224 127.874 73.5458 132.294 74.4237C137.924 75.5467 144.452 86.1582 142.748 94.6465Z" fill="#76A35D"/>
<path d="M139.695 96.3717C139.792 105.033 143.529 112.011 148.036 111.955C152.537 111.909 160.556 103.048 156.003 96.1828C149.822 86.8422 158.213 78.3642 153.711 78.4203C147.969 78.4816 139.588 87.7099 139.695 96.3717Z" fill="#76A35D"/>
<path d="M151.853 90.6703C147.341 98.0663 146.805 105.957 150.649 108.295C154.497 110.628 166.007 107.356 165.793 99.1279C165.502 87.9396 177.124 85.1833 173.276 82.8507C168.365 79.8648 156.371 83.2642 151.853 90.6703Z" fill="#76A35D"/>
<path d="M168.126 88.1437C168.36 87.9038 168.534 87.5925 168.58 87.2301C168.692 86.4287 168.192 85.6937 167.436 85.4743C167.436 85.4692 167.436 85.4692 167.426 85.4641C167.962 85.4232 168.416 85.0149 168.488 84.4738C168.575 83.8562 168.151 83.2897 167.539 83.1876C168.008 82.7333 168.335 82.1259 168.427 81.4318C168.651 79.7933 167.503 78.2825 165.849 78.0579C165.303 77.9813 164.777 78.0681 164.303 78.2621C164.445 78.0018 164.542 77.7057 164.583 77.3944C164.777 75.9958 163.787 74.7045 162.388 74.5156C162.143 74.485 161.914 74.4901 161.679 74.5156C161.363 73.6479 160.576 72.9742 159.591 72.8415C158.999 72.7649 158.428 72.8925 157.948 73.1681C157.774 72.0401 156.881 71.1111 155.692 70.9478C155.095 70.8712 154.523 70.9988 154.038 71.2745C153.655 70.9325 153.14 70.7538 152.594 70.8049C151.95 70.8763 151.42 71.2643 151.139 71.79C150.822 70.8815 150.021 70.1873 149 70.0495C147.928 69.9066 146.918 70.4272 146.387 71.2949C146.239 71.1979 146.065 71.1316 145.876 71.106C145.305 71.0244 144.769 71.3612 144.57 71.8819C144.172 70.907 143.278 70.1618 142.161 70.0086C140.497 69.7892 138.96 70.9478 138.736 72.6118V72.6271C138.297 72.6169 137.894 72.8976 137.684 73.3315C137.215 72.7598 136.541 72.3515 135.75 72.2494C134.106 72.0248 132.59 73.1783 132.371 74.8168C132.213 75.9805 132.743 77.0728 133.652 77.6904C133.555 77.7925 133.468 77.8895 133.381 77.9813C133.366 77.9813 133.356 77.9762 133.346 77.9762C131.86 77.7772 130.493 78.8133 130.299 80.2986C130.217 80.8397 130.314 81.3603 130.533 81.8197C129.278 84.0145 128.41 86.4798 128.053 89.1339C126.547 100.215 134.336 110.418 145.448 111.924C156.559 113.42 166.778 105.656 168.284 94.5648C168.58 92.37 168.508 90.2058 168.126 88.1437Z" fill="#F1DC92"/>
<path d="M143.13 97.0148C145.902 107.545 143.702 117.237 138.23 118.672C132.749 120.101 120.08 112.026 123.301 102.206C127.685 88.8379 114.685 81.3501 120.162 79.9159C127.149 78.0886 140.369 86.49 143.13 97.0148Z" fill="#599344"/>
<path d="M148.709 97.2751C141.992 105.845 140.165 115.614 144.621 119.095C149.082 122.571 163.915 120.167 164.859 109.872C166.14 95.8664 181.039 94.1258 176.583 90.6448C170.897 86.2093 155.426 88.7001 148.709 97.2751Z" fill="#599344"/>
<path d="M140.007 98.5665C134.535 107.984 134.071 117.911 138.965 120.739C143.865 123.572 158.229 119.152 157.739 108.826C157.075 94.7741 171.596 90.997 166.701 88.1693C160.459 84.5606 145.478 89.1493 140.007 98.5665Z" fill="#8ED24D"/>
<path d="M129.119 90.2875C129.007 91.1552 128.507 91.8034 128.012 91.7371C127.522 91.6707 127.216 90.9102 127.333 90.0476C127.45 89.185 127.946 88.5317 128.436 88.6031C128.936 88.6695 129.237 89.4249 129.119 90.2875Z" fill="white"/>
<path d="M130.487 93.202C130.406 93.8145 130.054 94.279 129.706 94.2279C129.354 94.182 129.14 93.6461 129.222 93.0285C129.303 92.4109 129.655 91.9566 130.002 92.0025C130.355 92.0485 130.574 92.5844 130.487 93.202Z" fill="white"/>
<path d="M131.651 89.8434C131.58 90.3641 131.284 90.7571 130.988 90.7111C130.692 90.6754 130.508 90.216 130.579 89.7005C130.651 89.1748 130.947 88.7869 131.243 88.8328C131.544 88.8685 131.723 89.3228 131.651 89.8434Z" fill="white"/>
<path d="M118.401 97.0403C121.581 98.25 123.408 101.195 122.479 103.62C121.56 106.039 118.227 107.024 115.052 105.814C111.867 104.605 110.04 101.665 110.969 99.2402C111.898 96.8157 115.221 95.8357 118.401 97.0403Z" fill="#599344"/>
<path d="M113.072 100.021C112.873 100.654 112.444 101.083 112.107 100.981C111.775 100.879 111.668 100.276 111.867 99.6383C112.066 99.0054 112.495 98.5767 112.827 98.6787C113.159 98.7808 113.271 99.3831 113.072 100.021Z" fill="#B82B4F"/>
<path d="M104.431 98.1428C107.83 98.2296 110.535 100.404 110.469 102.997C110.403 105.585 107.59 107.621 104.186 107.529C100.786 107.443 98.0861 105.268 98.1525 102.675C98.2189 100.088 101.031 98.0561 104.431 98.1428Z" fill="#599344"/>
<path d="M100.388 102.716C100.414 103.38 100.153 103.931 99.8063 103.941C99.4592 103.956 99.1529 103.426 99.1325 102.762C99.1121 102.093 99.3673 101.542 99.7195 101.532C100.072 101.522 100.368 102.048 100.388 102.716Z" fill="#B82B4F"/>
<path d="M109.065 100.751C112.47 100.838 115.17 103.007 115.109 105.605C115.042 108.198 112.22 110.224 108.825 110.132C105.421 110.046 102.716 107.876 102.782 105.284C102.848 102.696 105.661 100.664 109.065 100.751Z" fill="#76A35D"/>
<path d="M105.023 105.324C105.048 105.988 104.788 106.539 104.441 106.544C104.089 106.565 103.793 106.034 103.767 105.37C103.742 104.702 104.007 104.15 104.354 104.14C104.701 104.13 105.007 104.661 105.023 105.324Z" fill="#B82B4F"/>
<path d="M116.824 101.435C120.218 101.522 122.923 103.691 122.857 106.284C122.79 108.872 119.978 110.903 116.579 110.816C113.174 110.73 110.474 108.56 110.54 105.968C110.607 103.375 113.419 101.343 116.824 101.435Z" fill="#8ED24D"/>
<path d="M112.776 106.008C112.807 106.672 112.541 107.218 112.194 107.233C111.847 107.244 111.541 106.718 111.52 106.044C111.5 105.386 111.765 104.834 112.107 104.824C112.459 104.809 112.756 105.34 112.776 106.008Z" fill="#B82B4F"/>
<path d="M120.279 104.62C120.289 104.977 120.131 105.278 119.927 105.284C119.718 105.294 119.539 105.003 119.529 104.64C119.519 104.278 119.672 103.982 119.881 103.977C120.085 103.967 120.264 104.258 120.279 104.62Z" fill="white"/>
<path d="M121.04 105.717C121.045 105.967 120.937 106.182 120.795 106.187C120.641 106.192 120.519 105.988 120.504 105.733C120.499 105.472 120.611 105.258 120.759 105.258C120.902 105.253 121.029 105.457 121.04 105.717Z" fill="white"/>
<path d="M121.285 104.258C121.29 104.477 121.198 104.661 121.07 104.661C120.948 104.666 120.841 104.492 120.83 104.273C120.825 104.053 120.917 103.875 121.04 103.87C121.167 103.865 121.274 104.043 121.285 104.258Z" fill="white"/>
<path d="M108.499 102.002C108.509 102.364 108.356 102.66 108.146 102.665C107.942 102.675 107.764 102.389 107.753 102.027C107.738 101.665 107.896 101.369 108.101 101.358C108.31 101.353 108.488 101.639 108.499 102.002Z" fill="white"/>
<path d="M109.259 103.094C109.269 103.354 109.162 103.563 109.009 103.569C108.866 103.574 108.739 103.369 108.728 103.114C108.723 102.859 108.836 102.645 108.978 102.64C109.126 102.634 109.254 102.839 109.259 103.094Z" fill="white"/>
<path d="M109.504 101.644C109.514 101.864 109.417 102.037 109.295 102.042C109.172 102.048 109.06 101.874 109.055 101.66C109.045 101.44 109.142 101.261 109.264 101.256C109.387 101.251 109.494 101.425 109.504 101.644Z" fill="white"/>
<path d="M101.731 99.7659C101.741 100.128 101.588 100.424 101.378 100.43C101.174 100.445 100.996 100.149 100.985 99.7915C100.975 99.4291 101.128 99.1279 101.332 99.1228C101.542 99.1177 101.72 99.4035 101.731 99.7659Z" fill="white"/>
<path d="M102.491 100.863C102.501 101.119 102.394 101.328 102.251 101.338C102.098 101.338 101.97 101.134 101.96 100.879C101.955 100.623 102.067 100.409 102.215 100.404C102.358 100.399 102.486 100.603 102.491 100.863Z" fill="white"/>
<path d="M102.736 99.4086C102.746 99.623 102.649 99.8068 102.527 99.8119C102.404 99.817 102.292 99.6383 102.287 99.424C102.277 99.2045 102.374 99.0207 102.496 99.0207C102.619 99.0156 102.731 99.1892 102.736 99.4086Z" fill="white"/>
<path d="M118.957 99.1637C118.972 99.5312 118.814 99.8272 118.61 99.8323C118.401 99.8425 118.222 99.5516 118.212 99.1943C118.202 98.8319 118.355 98.5256 118.559 98.5205C118.768 98.5154 118.947 98.8013 118.957 99.1637Z" fill="white"/>
<path d="M119.723 100.261C119.728 100.521 119.616 100.731 119.473 100.736C119.325 100.741 119.197 100.537 119.187 100.276C119.182 100.026 119.294 99.8119 119.442 99.8068C119.585 99.7966 119.712 100.001 119.723 100.261Z" fill="white"/>
<path d="M119.968 98.8064C119.973 99.0207 119.876 99.2045 119.748 99.2096C119.631 99.2147 119.519 99.0412 119.513 98.8268C119.503 98.6073 119.6 98.4235 119.723 98.4184C119.85 98.4184 119.952 98.5869 119.968 98.8064Z" fill="white"/>
<path d="M166.007 155.264C166.007 156.325 165.145 157.178 164.088 157.178H83.4474C82.3806 157.178 81.518 156.325 81.518 155.264V112.659C81.518 111.603 82.3806 110.745 83.4474 110.745H164.088C165.145 110.745 166.007 111.603 166.007 112.659V155.264Z" fill="#FF7323"/>
<path d="M171.964 111.123C171.964 113.746 169.835 115.87 167.207 115.87H80.3186C77.7001 115.87 75.5666 113.746 75.5666 111.123V110.735C75.5666 108.116 77.7001 105.998 80.3186 105.998H167.207C169.835 105.998 171.964 108.116 171.964 110.735V111.123Z" fill="#BA4C0D"/>
<path d="M40.778 220.998C41.319 220.998 41.5997 220.718 41.5997 220.176V203.828L50.3432 215.2C50.7056 215.685 51.1496 215.685 51.5069 215.2L60.2963 203.787V220.176C60.2963 220.718 60.577 220.998 61.118 220.998H65.0074C65.5485 220.998 65.8292 220.718 65.8292 220.176V190.848C65.8292 189.307 64.7471 188.965 63.8233 190.19L50.925 207.237L38.0676 190.19C37.1285 188.944 36.0617 189.307 36.0617 190.848V220.176C36.0617 220.718 36.3424 220.998 36.8835 220.998H40.778Z" fill="#F75A00"/>
<path d="M82.9361 220.998C83.4771 220.998 83.7579 220.718 83.7579 220.176V191.011C83.7579 190.47 83.4771 190.19 82.9361 190.19H78.9395C78.3985 190.19 78.1177 190.47 78.1177 191.011V220.176C78.1177 220.718 78.3985 220.998 78.9395 220.998H82.9361Z" fill="#F75A00"/>
<path d="M110.839 220.998C111.38 220.998 111.661 220.718 111.661 220.176V216.828C111.661 216.302 111.38 216.001 110.839 216.001H101.651V191.011C101.651 190.47 101.371 190.19 100.83 190.19H96.833C96.292 190.19 96.0112 190.47 96.0112 191.011V220.176C96.0112 220.718 96.292 220.998 96.833 220.998H110.839Z" fill="#F75A00"/>
<path d="M138.96 220.998C139.501 220.998 139.782 220.718 139.782 220.176V216.828C139.782 216.302 139.501 216.001 138.96 216.001H127.164V210.846H137.352C137.893 210.846 138.174 210.565 138.174 210.024V206.895C138.174 206.354 137.893 206.074 137.352 206.074H127.164V195.181H138.96C139.501 195.181 139.782 194.88 139.782 194.36V191.011C139.782 190.47 139.501 190.19 138.96 190.19H122.346C121.805 190.19 121.524 190.47 121.524 191.011V220.176C121.524 220.718 121.805 220.998 122.346 220.998H138.96Z" fill="#F75A00"/>
<path d="M155.605 220.998C156.146 220.998 156.427 220.718 156.427 220.176V202.363L173.898 220.998C175.021 222.101 176.027 221.738 176.027 220.279V191.011C176.027 190.47 175.746 190.19 175.205 190.19H171.331C170.81 190.19 170.509 190.47 170.509 191.011V208.34L152.935 190.087C151.894 189.046 150.929 189.424 150.929 190.889V220.176C150.929 220.718 151.21 220.998 151.751 220.998H155.605Z" fill="#F75A00"/>
<path d="M201.032 190.19C200.572 189.143 199.71 189.143 199.225 190.19L185.949 220.034C185.689 220.615 185.949 220.998 186.551 220.998H190.982C191.426 220.998 191.762 220.799 191.926 220.355L193.671 216.022H206.61L208.351 220.355C208.514 220.799 208.856 220.998 209.295 220.998H213.71C214.333 220.998 214.573 220.615 214.333 220.034L201.032 190.19ZM200.149 199.995L204.783 211.51H195.494L200.149 199.995Z" fill="#F75A00"/>
<path d="M16.0492 101.193C16.0339 101.402 16.1156 101.576 16.3198 101.668L25.6808 106.404L15.6511 109.492C15.4316 109.554 15.3244 109.707 15.304 109.916L15.1254 112.019C15.0999 112.315 15.2734 112.463 15.5592 112.356L30.3154 107.241C30.8309 107.058 30.8666 106.644 30.392 106.384L16.7128 98.8348C16.4474 98.6868 16.2534 98.794 16.2279 99.09L16.0492 101.193Z" fill="#357401"/>
<path d="M33.7149 88.345C33.7761 88.0898 33.6741 87.9316 33.424 87.8703L31.8672 87.4875C31.6273 87.4314 31.4537 87.5232 31.3925 87.7784L30.0552 93.2552L27.6613 92.6682L28.8149 87.9367C28.8761 87.6866 28.7792 87.5232 28.5291 87.462L27.0744 87.1047C26.8243 87.0434 26.6609 87.1404 26.5997 87.3956L25.441 92.1272L20.3879 90.892L21.7252 85.4101C21.7864 85.16 21.6793 84.9967 21.4343 84.9354L19.8826 84.5577C19.6274 84.4965 19.4691 84.5934 19.4028 84.8436L17.5194 92.5559C17.4581 92.8112 17.5551 92.9745 17.8103 93.0357L31.3517 96.3432C31.6018 96.4045 31.7651 96.3075 31.8264 96.0574L33.7149 88.345Z" fill="#357401"/>
<path d="M33.346 74.1756C33.2541 72.3993 32.1567 71.0314 30.11 70.1892C27.369 69.0663 24.9803 69.7299 23.4388 73.4814L21.6217 77.8965C21.5247 78.1364 21.5962 78.3151 21.8361 78.412L34.7292 83.7153C34.9691 83.8123 35.1478 83.7408 35.2448 83.5009L35.9695 81.7349C36.0665 81.495 35.9951 81.3214 35.7552 81.2193L31.7025 79.5554L32.7948 76.9012L32.8254 76.8246L37.8224 76.4418C38.0469 76.4316 38.1848 76.3398 38.2715 76.1356L39.1035 74.1092C39.2158 73.8336 39.0882 73.6448 38.7819 73.6601L33.346 74.1756ZM24.7046 76.6766L25.5162 74.7115C25.9143 73.7315 26.7667 71.7103 29.1095 72.675C31.5238 73.6652 30.6714 75.814 30.3141 76.6817L29.5026 78.6519L24.7046 76.6766Z" fill="#357401"/>
<path d="M43.4544 66.3229C46.129 62.0252 45.2255 58.2328 41.3208 55.7981C37.3702 53.343 33.6084 54.2719 30.9492 58.539L28.8769 61.867C28.7391 62.0864 28.785 62.2702 29.0045 62.408L40.841 69.7784C41.0605 69.9162 41.2443 69.8703 41.3821 69.6508L43.4544 66.3229ZM32.1333 61.1575L32.9704 59.8049C34.6956 57.0384 37.1609 56.3851 39.8712 58.0694C42.5816 59.7589 43.143 62.3008 41.4229 65.0673L40.5807 66.4199L32.1333 61.1575Z" fill="#357401"/>
<path d="M54.0717 52.4869C56.1542 50.1543 56.7412 47.2245 54.0207 44.8051L46.9003 38.4658C46.7115 38.2922 46.5175 38.3024 46.3491 38.4964L45.0424 39.9664C44.874 40.1501 44.8791 40.3492 45.073 40.5227L51.8055 46.515C53.5511 48.0718 53.4541 49.4499 52.2189 50.8383C51.0041 52.2011 49.6311 52.4767 47.8803 50.9199L41.153 44.9276C40.9591 44.7541 40.7702 44.7643 40.5967 44.9583L39.29 46.4283C39.1216 46.612 39.1267 46.8111 39.3206 46.9795L46.441 53.3189C49.1615 55.7434 52.0454 54.7685 54.0717 52.4869Z" fill="#357401"/>
<path d="M64.1163 35.5094C64.8921 33.9118 64.5859 32.1866 63.1975 30.4614C61.3396 28.1543 58.9253 27.5878 55.7659 30.1347L52.0449 33.1309C51.8459 33.2942 51.8254 33.4831 51.9888 33.6821L60.7373 44.5387C60.9007 44.7377 61.0895 44.7582 61.2886 44.5948L62.7739 43.4004C62.9781 43.2371 62.9985 43.0483 62.8351 42.8492L60.084 39.4345L62.3196 37.6379L62.386 37.5817L66.9491 39.654C67.1482 39.751 67.3166 39.7408 67.485 39.603L69.1949 38.2248C69.4297 38.036 69.4042 37.8114 69.1235 37.6787L64.1163 35.5094ZM55.3371 33.5443L56.996 32.207C57.8177 31.5486 59.5378 30.1858 61.1252 32.156C62.7637 34.1874 60.9823 35.6574 60.2524 36.2495L58.5936 37.5817L55.3371 33.5443Z" fill="#357401"/>
<path d="M71.0698 19.7998C70.6308 19.4731 70.2736 19.6773 70.3144 20.2234L71.7844 35.7707C71.8099 36.0719 72.009 36.174 72.2591 36.031L74.1068 34.9898C74.2905 34.8877 74.3875 34.7244 74.3467 34.5049L74.0608 32.2897L79.4508 29.2527L81.1914 30.6512C81.3649 30.7942 81.5537 30.7993 81.7375 30.6972L83.575 29.661C83.8353 29.5181 83.8455 29.2986 83.6056 29.1149L71.0698 19.7998ZM72.9992 24.0924L77.6286 27.8031L73.7597 29.9826L72.9992 24.0924Z" fill="#357401"/>
<path d="M91.3905 26.9737C93.8099 26.0703 95.6627 24.095 94.647 21.3643C93.7435 18.9347 91.4211 18.5825 89.3488 18.3171C87.4807 18.1027 85.9239 17.9853 85.4748 16.7807C85.1124 15.8007 85.8321 15.1066 86.9039 14.7084C87.7819 14.3767 88.9099 14.2388 90.0175 14.2848C90.2676 14.295 90.4105 14.1521 90.4207 13.902L90.3646 12.2942C90.3748 12.044 90.2472 11.896 89.992 11.8909C88.573 11.8858 87.1234 12.1053 86.0362 12.5136C83.7189 13.3762 82.0039 15.2597 82.989 17.9087C83.8108 20.1239 85.7861 20.5833 87.7972 20.8794C89.8388 21.1652 91.6763 21.2162 92.1306 22.4412C92.5083 23.457 91.8295 24.3043 90.5075 24.7943C89.5683 25.1413 88.2974 25.3608 86.7355 25.2332C86.4752 25.2179 86.3221 25.3353 86.3118 25.5854V27.2851C86.3067 27.5454 86.4292 27.6832 86.6998 27.7036C88.6496 27.7343 90.0685 27.4637 91.3905 26.9737Z" fill="#357401"/>
<path d="M114.208 21.2615C114.458 21.2309 114.586 21.0828 114.555 20.8225L113.861 14.8047L118.103 6.45941C118.251 6.18889 118.113 5.98472 117.796 6.02045L115.464 6.28587C115.265 6.31139 115.101 6.41858 115.02 6.60743L112.238 12.4721L108.211 7.39348C108.083 7.22504 107.92 7.15868 107.71 7.1842L105.378 7.45472C105.072 7.48535 104.975 7.72014 105.184 7.94983L111.176 15.1212L111.87 21.1339C111.901 21.3891 112.059 21.5065 112.304 21.481L114.208 21.2615Z" fill="#357401"/>
<path d="M133.797 21.1845C134.052 21.2202 134.205 21.1079 134.241 20.8527L134.864 16.4835L141.178 17.387L140.555 21.751C140.519 22.0062 140.631 22.1593 140.887 22.1951L142.775 22.4656C143.035 22.5013 143.184 22.389 143.224 22.1338L145.195 8.33217C145.23 8.07185 145.113 7.92383 144.858 7.883L142.969 7.61759C142.714 7.57675 142.561 7.69415 142.525 7.94935L141.514 15.0237L135.201 14.1203L136.211 7.04592C136.247 6.79071 136.135 6.64269 135.879 6.60186L133.991 6.33644C133.731 6.29561 133.583 6.413 133.547 6.66821L131.577 20.4699C131.536 20.7251 131.653 20.8782 131.908 20.9139L133.797 21.1845Z" fill="#357401"/>
<path d="M154.355 26.1243C158.602 27.5738 162.747 25.7108 164.237 21.357C165.722 17.0082 163.589 12.9861 159.342 11.5366C155.106 10.087 150.966 11.9653 149.481 16.3089C147.99 20.6679 150.119 24.6747 154.355 26.1243ZM155.167 23.7559C152.436 22.8219 151.027 20.1422 152.043 17.1869C153.054 14.2162 155.795 12.9657 158.536 13.9049C161.277 14.8389 162.701 17.5135 161.685 20.4842C160.669 23.4497 157.903 24.6951 155.167 23.7559Z" fill="#357401"/>
<path d="M175.288 29.6127C177.064 29.7403 178.55 28.8114 179.632 26.8769C181.076 24.2942 180.704 21.8442 177.166 19.8586L172.996 17.526C172.772 17.4035 172.588 17.4546 172.46 17.6792L165.651 29.8424C165.524 30.0721 165.575 30.2507 165.799 30.3783L167.469 31.3124C167.693 31.44 167.877 31.3839 167.999 31.1593L170.143 27.3362L172.644 28.7399L172.721 28.7807L172.496 33.7879C172.481 34.0125 172.552 34.1605 172.746 34.2677L174.66 35.3396C174.921 35.4876 175.125 35.3804 175.14 35.0691L175.288 29.6127ZM173.839 20.7366L175.696 21.7778C176.615 22.2882 178.524 23.3805 177.289 25.5906C176.013 27.8671 173.981 26.7595 173.16 26.3001L171.302 25.264L173.839 20.7366Z" fill="#357401"/>
<path d="M182.303 40.9428C182.507 41.101 182.696 41.0755 182.855 40.8713L190.154 31.4133L192.685 33.3682C192.889 33.5264 193.083 33.4907 193.236 33.2968L194.211 32.0309C194.37 31.8217 194.349 31.6328 194.14 31.4746L186.948 25.9212C186.744 25.763 186.555 25.7885 186.397 25.9927L185.417 27.2585C185.264 27.4576 185.284 27.6515 185.488 27.8098L188.01 29.7545L180.706 39.2125C180.547 39.4166 180.578 39.6106 180.777 39.7637L182.303 40.9428Z" fill="#357401"/>
<path d="M203.073 40.0297C203.282 39.5244 202.996 39.2283 202.475 39.4019L187.77 44.6592C187.485 44.7612 187.439 44.9756 187.638 45.1849L189.097 46.7161C189.245 46.8693 189.424 46.9203 189.633 46.8335L191.706 46.0067L195.973 50.483L195.049 52.5145C194.952 52.7135 194.993 52.9024 195.141 53.0504L196.595 54.5817C196.8 54.796 197.014 54.7501 197.137 54.4745L203.073 40.0297ZM199.387 42.9595L196.932 48.3597L193.87 45.1492L199.387 42.9595Z" fill="#357401"/>
<path d="M203.073 63.6324C203.226 63.8417 203.41 63.8774 203.625 63.7243L204.931 62.8004C205.135 62.6575 205.171 62.4636 205.023 62.2543L202.486 58.6661L212.235 51.7652C212.45 51.6121 212.48 51.4283 212.332 51.214L211.225 49.6572C211.077 49.4479 210.893 49.4122 210.679 49.5653L199.301 57.6248C199.092 57.7728 199.056 57.9617 199.21 58.171L203.073 63.6324Z" fill="#357401"/>
<path d="M206.455 69.4378C206.582 69.6624 206.761 69.7134 206.991 69.5858L219.133 62.736C219.358 62.6084 219.409 62.4246 219.281 62.2L218.347 60.5412C218.22 60.3115 218.036 60.2605 217.811 60.3881L205.663 67.2379C205.439 67.3655 205.388 67.5492 205.515 67.7738L206.455 69.4378Z" fill="#357401"/>
<path d="M212.552 76.4331L226.287 78.5819C226.578 78.6279 226.742 78.4492 226.619 78.1532L222.648 68.5574C222.551 68.3175 222.372 68.246 222.138 68.3481L220.657 68.9555C220.428 69.0525 220.346 69.2311 220.443 69.471L222.862 75.3204L209.132 73.1868C208.841 73.1409 208.678 73.3195 208.8 73.6156L213.078 83.9515C213.18 84.1914 213.353 84.2679 213.593 84.1659L215.073 83.5534C215.303 83.4615 215.385 83.2828 215.283 83.0429L212.552 76.4331Z" fill="#357401"/>
<path d="M230.108 90.5597C230.542 90.228 230.45 89.8298 229.909 89.7175L214.576 86.7673C214.275 86.7112 214.127 86.8694 214.193 87.1501L214.673 89.2173C214.719 89.4215 214.852 89.5593 215.071 89.5848L217.281 89.9268L218.68 95.9548L216.853 97.236C216.664 97.3585 216.608 97.5371 216.653 97.7413L217.133 99.7983C217.2 100.089 217.404 100.156 217.649 99.982L230.108 90.5597ZM225.443 91.208L220.584 94.6124L219.578 90.2892L225.443 91.208Z" fill="#357401"/>
<path d="M217.518 108.059C217.707 110.632 219.085 112.964 221.989 112.755C224.572 112.571 225.567 110.443 226.399 108.529C227.129 106.793 227.675 105.329 228.961 105.237C230.003 105.165 230.467 106.053 230.554 107.192C230.62 108.126 230.442 109.249 230.084 110.3C230.003 110.535 230.105 110.714 230.34 110.79L231.896 111.188C232.131 111.27 232.31 111.188 232.386 110.943C232.79 109.585 232.983 108.131 232.902 106.972C232.723 104.507 231.396 102.332 228.573 102.537C226.22 102.705 225.22 104.466 224.373 106.319C223.531 108.197 222.964 109.948 221.662 110.04C220.58 110.116 219.958 109.228 219.861 107.825C219.784 106.819 219.932 105.543 220.494 104.078C220.58 103.833 220.509 103.654 220.274 103.573L218.646 103.093C218.396 103.016 218.232 103.098 218.135 103.353C217.554 105.211 217.421 106.656 217.518 108.059Z" fill="#357401"/>
</svg>
