<svg width="95" height="106" viewBox="0 0 95 106" fill="none" xmlns="http://www.w3.org/2000/svg">
<path d="M93.6394 50.9689C93.3001 49.7091 92.6957 48.5588 91.8769 47.6148C91.2519 46.86 90.4497 46.3175 89.5621 46.0495C89.9969 46.819 90.3905 47.7068 90.6843 48.6539C91.0133 49.6207 91.2248 50.6532 91.2894 51.7252C91.3884 52.6514 91.3884 53.5875 91.2894 54.5137C91.1061 53.8272 90.8244 53.1786 90.4551 52.5933C89.7276 51.4926 88.7554 50.6242 87.6351 50.0744C86.3943 49.4489 84.9906 49.3595 83.6944 49.8233C82.3982 50.2872 81.3011 51.2715 80.6145 52.5867C80.3208 53.126 80.0858 53.7113 79.9095 54.3361C72.9653 41.3933 60.4691 32.8239 46.1811 32.8239C45.4526 32.8239 44.73 32.8436 44.0133 32.8896C39.5805 32.8989 35.17 33.5916 30.9061 34.9481C30.5419 32.0939 27.1931 26.3064 11.8006 26.3064L16.5006 42.8138C13.5452 45.4881 11.0607 48.7555 9.17451 52.4486L0.0506361 52.613C0.0506361 52.613 -0.948113 78.9197 5.92564 78.9197H9.09813C11.2579 83.0179 14.1476 86.575 17.5875 89.37L17.6756 105.226H24.0206C31.7169 105.226 35.3006 105.226 35.3006 100.294V97.7289C41.2265 98.9581 47.3052 98.9403 53.2253 97.6763L52.9256 100.294C52.9256 105.226 56.5681 105.226 64.3231 105.226H70.5506V89.5081C76.0596 85.2326 80.0242 78.8961 81.7308 71.6393C82.0656 71.4617 82.4005 71.4815 82.7413 71.4815C83.082 71.4815 83.4169 71.4617 83.7518 71.4157C85.2264 71.1132 86.5718 70.4687 87.7409 69.5545C89.321 68.3031 90.5303 66.5508 91.213 64.5234C91.3775 63.9117 91.5009 63.2672 91.5831 62.603L91.589 62.5372C92.8874 60.8141 93.7745 58.657 94.0506 56.2828C94.2907 54.4686 94.1458 52.6166 93.6276 50.8768L93.6394 50.9689ZM20.6719 50.9689C21.8405 50.9689 22.9612 51.4885 23.7876 52.4136C24.6139 53.3386 25.0781 54.5932 25.0781 55.9014C25.0781 57.2095 24.6139 58.4641 23.7876 59.3892C22.9612 60.3142 21.8405 60.8339 20.6719 60.8339C19.5033 60.8339 18.3825 60.3142 17.5562 59.3892C16.7299 58.4641 16.2656 57.2095 16.2656 55.9014C16.2656 54.5932 16.7299 53.3386 17.5562 52.4136C18.3825 51.4885 19.5033 50.9689 20.6719 50.9689ZM34.5956 46.0364C33.9322 46.2746 33.2148 46.2422 32.5706 45.9448C31.9265 45.6475 31.3972 45.1044 31.0765 44.4119C30.9766 44.0669 30.9432 43.702 30.9785 43.3414C31.0138 42.9808 31.117 42.6327 31.2814 42.3201C31.4457 42.0074 31.6674 41.7374 31.9319 41.5277C32.1963 41.3181 32.4975 41.1736 32.8155 41.1039C36.6796 40.0667 40.6453 39.5805 44.6184 39.657L45.2118 39.6504C49.1598 39.6504 52.9903 40.1766 56.6621 41.1762C57.4024 41.3341 58.2014 42.3732 58.2014 43.6227C58.2011 43.8886 58.1634 44.1527 58.0898 44.4054C57.8841 44.8318 57.594 45.1998 57.2416 45.4814C56.8893 45.763 56.4841 45.9505 56.057 46.0298H55.1581C51.8761 45.1451 48.5112 44.7035 45.1354 44.7145H44.6125C41.0581 44.7145 37.6036 45.1946 34.296 46.1021L34.5956 46.0364ZM85.7081 65.306C84.9154 65.9514 84.0076 66.3978 83.0468 66.6147L82.3006 66.6213V65.7664V63.7276C83.27 64.5497 84.4979 65.0429 85.8256 65.0429H85.949L85.7081 65.306ZM86.1781 60.8339C85.632 60.9195 85.0757 60.8075 84.5906 60.514C84.1054 60.2206 83.7168 59.7611 83.4815 59.2029C83.2123 58.6285 83.0721 57.9894 83.0731 57.3408C83.0742 56.6923 83.2163 56.0537 83.4874 55.4805C83.7667 55.0477 84.178 54.7444 84.6435 54.6281C85.109 54.5117 85.5964 54.5904 86.0136 54.8491C86.546 55.0778 87.0039 55.4819 87.3269 56.0079C87.65 56.5339 87.823 57.1571 87.8231 57.7954V57.802C87.9392 58.7139 87.9372 59.6398 87.8173 60.5511C87.2716 60.6688 86.7159 60.7173 86.1605 60.6958L86.1781 60.8339Z" fill="#97542F"/>
<path d="M47.0506 19.7297H41.1756V18.6117H42.6444V11.4433H41.1756L44.4069 7.82617H45.5819V18.6117H47.0506V19.7297Z" fill="#E1B519"/>
<path d="M44.1131 4.9325C45.2708 4.93293 46.417 5.18861 47.4864 5.68493C48.5558 6.18126 49.5274 6.90851 50.3457 7.82517C51.164 8.74183 51.8131 9.82994 52.2557 11.0274C52.6984 12.2248 52.926 13.5081 52.9256 14.8041C52.9252 16.1 52.6968 17.3831 52.2535 18.5802C51.8101 19.7773 51.1604 20.865 50.3416 21.781C49.5227 22.6971 48.5507 23.4236 47.481 23.9191C46.4113 24.4147 45.2649 24.6695 44.1073 24.6691C41.7693 24.6682 39.5273 23.6277 37.8747 21.7764C36.222 19.9251 35.294 17.4147 35.2948 14.7975C35.2955 12.1803 36.225 9.67057 37.8788 7.82052C39.5326 5.97048 41.7751 4.93162 44.1131 4.9325ZM44.1131 0C40.6073 0 37.2451 1.55902 34.7661 4.33408C32.2871 7.10915 30.8944 10.8729 30.8944 14.7975C30.8944 18.722 32.2871 22.4858 34.7661 25.2609C37.2451 28.036 40.6073 29.595 44.1131 29.595C47.619 29.595 50.9812 28.036 53.4602 25.2609C55.9392 22.4858 57.3319 18.722 57.3319 14.7975C57.3319 10.8729 55.9392 7.10915 53.4602 4.33408C50.9812 1.55902 47.619 0 44.1131 0V0Z" fill="#E1B519"/>
</svg>
