<svg width="79" height="77" viewBox="0 0 79 77" fill="none" xmlns="http://www.w3.org/2000/svg">
<path d="M67.1708 17.5378C66.4873 16.2125 65.5059 15.1105 64.3241 14.3413C63.1423 13.5722 61.8012 13.1626 60.4342 13.1534H50.9167V4.38445C50.9167 3.22162 50.504 2.10642 49.7695 1.28418C49.035 0.461933 48.0388 0 47 0H7.83333C5.75581 0 3.76337 0.923864 2.29433 2.56835C0.825295 4.21284 0 6.44325 0 8.76891V52.6134C0.00140899 54.1512 0.364026 55.6615 1.05147 56.9928C1.73892 58.3241 2.72703 59.4297 3.91667 60.1985C3.77643 64.2684 5.08621 68.234 7.55786 71.2229C10.0295 74.2117 13.4606 75.9791 17.0963 76.136C20.7319 76.293 24.2744 74.8268 26.9444 72.06C29.6143 69.2931 31.1931 65.4523 31.3333 61.3824H43.475C43.9081 65.0508 45.5174 68.4181 48.0032 70.8572C50.489 73.2964 53.6819 74.6411 56.9875 74.6411C60.2931 74.6411 63.486 73.2964 65.9718 70.8572C68.4576 68.4181 70.0669 65.0508 70.5 61.3824C72.5775 61.3824 74.57 60.4585 76.039 58.814C77.508 57.1695 78.3333 54.9391 78.3333 52.6134V39.4601C78.3272 38.6602 78.1384 37.8754 77.785 37.1802L67.1708 17.5378ZM50.9167 21.9223H60.4342L67.4842 35.0756H50.9167V21.9223ZM17.625 65.7668C16.463 65.7668 15.3272 65.3811 14.361 64.6584C13.3949 63.9358 12.6419 62.9086 12.1972 61.7069C11.7525 60.5052 11.6362 59.1828 11.8629 57.9071C12.0896 56.6313 12.6491 55.4595 13.4707 54.5397C14.2924 53.6199 15.3392 52.9936 16.4788 52.7398C17.6185 52.486 18.7998 52.6163 19.8733 53.1141C20.9468 53.6118 21.8643 54.4548 22.5099 55.5363C23.1554 56.6178 23.5 57.8894 23.5 59.1901C23.5 60.9344 22.881 62.6072 21.7793 63.8405C20.6775 65.0739 19.1831 65.7668 17.625 65.7668ZM56.7917 65.7668C55.6297 65.7668 54.4938 65.3811 53.5277 64.6584C52.5616 63.9358 51.8085 62.9086 51.3639 61.7069C50.9192 60.5052 50.8029 59.1828 51.0296 57.9071C51.2562 56.6313 51.8158 55.4595 52.6374 54.5397C53.4591 53.6199 54.5059 52.9936 55.6455 52.7398C56.7852 52.486 57.9664 52.6163 59.0399 53.1141C60.1135 53.6118 61.031 54.4548 61.6766 55.5363C62.3221 56.6178 62.6667 57.8894 62.6667 59.1901C62.6667 60.9344 62.0477 62.6072 60.9459 63.8405C59.8441 65.0739 58.3498 65.7668 56.7917 65.7668Z" fill="#3D404F"/>
</svg>
